<?xml version="1.0" standalone="no"?>
<!DOCTYPE svg PUBLIC "-//W3C//DTD SVG 20010904//EN"
 "http://www.w3.org/TR/2001/REC-SVG-20010904/DTD/svg10.dtd">
<svg version="1.0" xmlns="http://www.w3.org/2000/svg"
 width="700.000000pt" height="700.000000pt" viewBox="0 0 700.000000 700.000000"
 preserveAspectRatio="xMidYMid meet">
<metadata>
Created by potrace 1.14, written by Peter Selinger 2001-2017
</metadata>
<g transform="translate(0.000000,700.000000) scale(0.100000,-0.100000)"
fill="#000000" stroke="none">
<path d="M3350 6801 c-81 -22 -166 -65 -355 -178 -11 -7 -26 -15 -34 -19 -15
-8 -346 -198 -371 -213 -8 -6 -58 -34 -110 -64 -52 -30 -225 -130 -385 -222
-159 -92 -315 -181 -345 -198 -30 -16 -71 -40 -90 -52 -19 -12 -195 -114 -390
-225 -540 -309 -537 -307 -605 -400 -46 -63 -71 -109 -97 -182 l-23 -63 -3
-1458 c-3 -1622 -7 -1521 66 -1666 67 -134 154 -209 404 -350 64 -35 101 -57
158 -91 30 -18 75 -44 100 -58 25 -14 176 -100 335 -192 160 -92 394 -226 520
-299 127 -72 237 -135 245 -141 13 -8 86 -50 175 -100 17 -10 176 -102 355
-205 179 -104 348 -198 376 -211 77 -34 163 -47 262 -41 139 8 171 23 592 269
100 58 1109 642 1535 888 270 155 518 302 551 326 77 54 134 122 179 211 69
137 65 43 62 1648 -1 798 -5 1461 -9 1474 -44 148 -93 231 -191 321 -42 39
-371 234 -927 551 -58 33 -112 64 -120 70 -12 7 -292 169 -415 239 -215 123
-750 430 -850 488 -228 133 -281 152 -430 157 -72 2 -118 -2 -165 -14z m355
-555 c83 -48 157 -91 165 -96 65 -39 153 -90 155 -90 3 0 184 -104 225 -129 8
-5 80 -47 159 -93 80 -46 163 -94 185 -107 152 -88 369 -213 411 -236 28 -15
61 -35 75 -45 14 -9 86 -51 160 -94 74 -42 142 -81 150 -86 8 -6 82 -48 163
-95 207 -119 194 -106 139 -135 -26 -13 -65 -35 -87 -49 -43 -26 -135 -80
-200 -116 -22 -12 -99 -56 -172 -98 -72 -42 -148 -86 -169 -98 -21 -11 -141
-81 -268 -154 -127 -73 -250 -144 -272 -157 -103 -58 -401 -230 -414 -238 -8
-6 -71 -42 -140 -81 -69 -39 -141 -81 -160 -92 -19 -11 -52 -29 -73 -41 -21
-11 -46 -25 -55 -31 -10 -5 -54 -31 -99 -58 l-82 -47 -228 131 c-125 72 -246
141 -268 154 -22 12 -55 31 -72 41 -47 27 -597 344 -652 375 -25 15 -118 68
-206 119 -88 51 -176 101 -195 112 -312 178 -610 352 -610 357 0 4 17 16 38
27 20 11 150 86 287 165 138 80 401 233 585 339 184 106 411 238 504 292 92
54 170 98 171 98 2 0 40 23 85 50 45 28 83 50 84 50 4 0 394 225 416 240 8 6
38 8 65 7 41 -3 76 -19 200 -91z m-2585 -1648 c25 -14 176 -101 335 -193 160
-93 304 -176 320 -185 63 -36 421 -243 665 -385 140 -81 273 -158 295 -170 22
-13 145 -84 274 -159 129 -75 238 -136 242 -136 5 0 9 -28 10 -62 2 -290 0
-2520 -3 -2523 -1 -2 -93 49 -203 112 -110 64 -220 127 -245 141 -25 13 -128
73 -230 132 -102 59 -205 118 -230 132 -25 14 -207 119 -405 233 -198 114
-376 217 -395 228 -19 10 -109 62 -200 115 -91 52 -186 107 -211 121 -25 14
-55 33 -67 42 -52 38 -50 -26 -50 1332 0 694 2 1266 5 1270 3 4 15 2 26 -6 12
-7 42 -25 67 -39z m4856 -1225 c-1 -1261 -1 -1278 -21 -1305 -11 -15 -31 -33
-45 -40 -14 -7 -27 -15 -30 -18 -7 -7 -55 -35 -120 -70 -30 -17 -62 -35 -70
-40 -8 -5 -109 -64 -225 -131 -273 -157 -374 -216 -580 -336 -94 -55 -177
-102 -185 -106 -8 -4 -36 -20 -61 -35 -25 -15 -110 -64 -190 -110 -79 -46
-151 -88 -159 -93 -60 -38 -546 -315 -548 -313 -8 6 -2 2578 6 2586 5 5 119
72 253 150 300 173 248 143 594 343 160 92 439 253 620 358 182 104 342 198
357 208 15 10 29 19 31 19 2 0 85 47 183 104 99 58 182 105 185 105 4 1 6
-574 5 -1276z"/>
</g>
</svg>
